<svg width="48" height="48" viewBox="0 0 48 48" fill="none" xmlns="http://www.w3.org/2000/svg">
<path d="M36.2649 25.5016L39.7435 23.4292C40.9277 22.541 43.0001 23.4292 44.3323 25.4276C45.5905 27.4259 45.6646 29.7203 44.4803 30.6085C44.4063 30.6825 44.3323 30.7565 44.1843 30.7565L40.9277 32.6809L36.2649 25.5016Z" fill="#3E4347"/>
<path d="M36.709 30.6085C37.9672 32.6069 39.7435 33.5691 41.0018 32.6809C42.186 31.7927 42.186 29.4983 40.8537 27.5C39.5955 25.5016 37.5231 24.6135 36.2649 25.5016C35.1547 26.3158 35.7468 29.2023 36.709 30.6085Z" fill="#62696D"/>
<path d="M37.6707 29.9424C38.3368 30.9786 39.225 31.4967 39.8911 30.9786C40.5572 30.5345 40.4832 29.2763 39.8171 28.2401C39.151 27.2039 38.0408 26.6858 37.3747 27.2039C36.7826 27.648 37.0046 28.9062 37.6707 29.9424Z" fill="#3E4347"/>
<path d="M38.2631 28.3881C38.9292 28.0181 39.8174 28.9802 39.3733 29.6464L36.4868 31.4227L35.5986 29.8684L38.2631 28.3881Z" fill="#B2C1C0"/>
<path d="M35.6727 24.9835V28.9802L32.6382 26.1677L35.6727 24.9835Z" fill="#9C2C1B"/>
<path d="M21.4622 12.5492L25.4589 10.1808C26.8651 9.14462 29.2335 10.1808 30.7138 12.4752C32.1941 14.7696 32.2681 17.4341 30.8618 18.4703C30.7878 18.5443 30.6398 18.6183 30.5658 18.6183L26.8651 20.8387L21.4622 12.5492Z" fill="#3E4347"/>
<path d="M21.9061 18.3964C23.3863 20.6908 25.4587 21.801 26.8649 20.7649C28.2712 19.7287 28.1972 17.0642 26.7169 14.7698C25.2366 12.4754 22.8682 11.4392 21.462 12.4754C20.1297 13.4376 20.8699 16.7682 21.9061 18.3964Z" fill="#62696D"/>
<path d="M38.1891 36.4556L29.7516 31.7928L27.6052 33.051L19.0197 31.1266L8.43579 23.1332V19.3586L19.0197 26.7599L27.6052 29.8684L29.7516 28.3141L38.1891 35.1234V36.4556Z" fill="#9C2C1B"/>
<path d="M41.2976 33.125L38.1891 35.1234L29.7516 28.3142L27.6052 29.8685L19.0197 26.7599L8.43579 19.3586L11.1003 17.8043L12.8766 18.2484L19.0197 14.8438L18.9457 14.0296L21.3881 12.5494L32.4161 19.8767L35.6726 24.9836L33.3782 26.0938L41.2976 33.125Z" fill="#D33B23"/>
<path d="M11.9146 11.9572V15.2138L19.7599 18.9885L23.2386 17.3602L14.0609 13.8076V11.9572H11.9146Z" fill="#F15744"/>
<path d="M23.2386 20.1727V17.3602L19.7599 18.9885L11.9145 15.2138V11.9572H11.4705V15.5099L19.7599 21.727L23.2386 20.1727Z" fill="#9C2C1B"/>
<path d="M32.4162 19.8766L35.6727 24.9836L27.6053 29.8684L19.0198 26.7599L32.4162 19.8766Z" fill="#F15744"/>
<path d="M32.416 19.8766L35.6726 24.9836L34.7844 25.5016L31.4539 20.3207L32.416 19.8766Z" fill="#FFE62E"/>
<path d="M21.4621 12.5494L32.4161 19.8767L31.4539 20.3208L20.574 13.0675L21.4621 12.5494Z" fill="#FFE62E"/>
<path d="M20.7218 25.8717L28.7893 29.1283L27.6051 29.8684L19.0195 26.7599L20.7218 25.8717Z" fill="#FFE62E"/>
<path d="M9.76803 18.5445L20.722 25.8718L19.0197 26.76L8.43579 19.3586L9.76803 18.5445Z" fill="#FFE62E"/>
<path d="M19.7599 21.7269C19.5378 23.2812 21.9062 25.2796 24.2006 25.5756C28.1974 26.1677 30.0477 23.8733 28.8635 21.5049C27.7533 19.3585 23.3125 19.8026 23.3125 19.8026L19.7599 21.7269Z" fill="#9C2C1B"/>
<path d="M4.06909 22.393L8.65791 19.6545C10.2862 18.4703 12.9507 19.6545 14.579 22.245C16.2813 24.8355 16.3553 27.87 14.727 28.9802C14.653 29.0542 14.5049 29.1282 14.3569 29.2022L10.1382 31.7187L4.06909 22.393Z" fill="#3E4347"/>
<path d="M4.58684 29.0542C6.28915 31.6446 8.58355 32.9028 10.2118 31.7186C11.8401 30.5344 11.6921 27.5739 10.0638 24.9834C8.36152 22.393 5.69704 21.2088 4.14277 22.393C2.58849 23.5032 3.40263 27.2038 4.58684 29.0542Z" fill="#62696D"/>
<path d="M5.91928 28.1662C6.80744 29.5724 7.91763 30.1645 8.80579 29.5724C9.61994 28.9803 9.61994 27.352 8.73178 25.9458C7.76961 24.6136 6.36336 23.9474 5.4752 24.6136C4.66106 25.2057 5.03112 26.7599 5.91928 28.1662Z" fill="#3E4347"/>
<path d="M32.5641 31.7187C33.2303 31.3486 34.1184 32.3108 33.6743 32.9769L30.7878 34.7532L29.8997 33.199L32.5641 31.7187Z" fill="#B2C1C0"/>
<path d="M23.6826 32.3109L27.6793 29.9424C29.0856 28.9062 31.454 29.9424 32.9343 32.2368C34.4145 34.5312 34.4885 37.1957 33.0823 38.2319C33.0083 38.3059 32.8602 38.3799 32.7862 38.3799L29.0856 40.6003L23.6826 32.3109Z" fill="#3E4347"/>
<path d="M24.1265 38.2319C25.6068 40.5263 27.6791 41.6365 29.0854 40.6003C30.4916 39.5641 30.4176 36.8997 28.9374 34.6052C27.4571 32.3108 25.0887 31.2747 23.6824 32.3108C22.3502 33.273 23.0903 36.6036 24.1265 38.2319Z" fill="#62696D"/>
<path d="M25.3111 37.4179C26.1253 38.6021 27.0875 39.1942 27.8276 38.6761C28.5677 38.158 28.5677 36.6777 27.7536 35.4935C26.9394 34.3093 25.6812 33.7172 24.9411 34.3093C24.2009 34.8274 24.497 36.2337 25.3111 37.4179Z" fill="#3E4347"/>
<path d="M17.1694 6.92435L20.1299 9.58882L6.36344 16.8421L1.84863 12.6974L17.1694 6.92435Z" fill="#D33B23"/>
<path d="M20.7961 21.505C20.7961 23.7253 23.4606 24.8355 25.533 24.8355C27.6794 24.8355 28.4195 23.7253 28.4195 21.505C28.4195 19.2846 26.7172 17.5082 24.5708 17.5082C22.4984 17.5082 20.7961 19.2846 20.7961 21.505Z" fill="#42ADE2"/>
<path d="M23.0904 21.4309C23.1645 20.6167 25.977 20.6167 28.1233 20.4687C28.7895 20.3947 28.7154 22.9111 28.1233 22.9852C24.7187 23.2812 23.0164 22.245 23.0904 21.4309Z" fill="#3E4347"/>
<path d="M44.7763 30.5345L46.2566 33.7911L36.5609 40.3042L32.1941 38.3059L40.9276 32.9029L44.7763 30.5345Z" fill="#F15744"/>
<path d="M3.9209 11.8833L8.65774 15.6579L9.98998 14.9918L5.69721 11.2171L3.9209 11.8833Z" fill="#FFE62E"/>
<path d="M14.5789 7.88649L17.7614 10.847L18.7236 10.3289L15.7631 7.44241L14.5789 7.88649Z" fill="#FFE62E"/>
<path d="M42.7039 31.8668L44.3321 35.0493L45.1463 34.5312L43.666 31.2747L42.7039 31.8668Z" fill="#FFE62E"/>
<path d="M34.1182 37.1217L37.7448 39.4901L38.559 38.898L35.1544 36.5296L34.1182 37.1217Z" fill="#FFE62E"/>
</svg>
