<svg width="24" height="24" viewBox="0 0 24 24" fill="none" xmlns="http://www.w3.org/2000/svg">
<path fill-rule="evenodd" clip-rule="evenodd" d="M12 22.0001C17.5228 22.0001 22 17.5229 22 12.0001C22 6.47725 17.5228 2.0001 12 2.0001C6.47715 2.0001 2 6.47725 2 12.0001C2 17.5229 6.47715 22.0001 12 22.0001Z" fill="#5C6979" stroke="white"/>
<path fill-rule="evenodd" clip-rule="evenodd" d="M9.5 10.5001C9.5 9.11939 10.6193 8.0001 12 8.0001C13.3807 8.0001 14.5 9.11939 14.5 10.5001V11.0001C15.0523 11.0001 15.5 11.4478 15.5 12.0001V15.0001C15.5 15.5524 15.0523 16.0001 14.5 16.0001H9.5C8.94772 16.0001 8.5 15.5524 8.5 15.0001V12.0001C8.5 11.4478 8.94772 11.0001 9.5 11.0001V10.5001ZM12 9.0001C11.1716 9.0001 10.5 9.67167 10.5 10.5001V11.0001H13.5V10.5001C13.5 9.67167 12.8284 9.0001 12 9.0001Z" fill="white"/>
</svg>
