<svg width="29" height="28" viewBox="0 0 29 28" fill="none" xmlns="http://www.w3.org/2000/svg">
<g clip-path="url(#clip0)">
<path d="M14.5 1.39983L15.3231 0.207796C15.4127 0.0779782 15.5636 0 15.7252 0H17.3951L19.1749 0.408429L21.2662 0H22.2963C22.6822 0 22.9125 0.415373 22.6984 0.725482L19.3329 5.59956L14.6663 6.53284L14.5 1.39983Z" fill="#1E87FF"/>
<path d="M15.4663 2.79934L17.3992 0H21.2649L17.3992 5.59868H15.4663V2.79934Z" fill="#9586FB"/>
<path d="M21.2631 0H20.9534C21.0517 0 21.1396 0.0274299 21.2127 0.0729474L21.2631 0Z" fill="#BEC8F7"/>
<path d="M17.3976 5.59956L13.6748 0.207796C13.5851 0.0779782 13.4343 0 13.2727 0H11.5981L9.91777 0.291079L7.73173 0H6.70163C6.31566 0 6.08538 0.415373 6.29952 0.725482L9.66495 5.59956L13.5838 6.22486L17.3976 5.59956Z" fill="#1E87FF"/>
<path d="M13.6754 0.207764C13.5858 0.077966 13.4349 0 13.2734 0H11.9316C12.0932 0 12.2441 0.077966 12.3337 0.207764L16.056 5.59868L12.9045 6.11541L13.5845 6.22389L17.3977 5.59868L13.6754 0.207764Z" fill="#1E87FF"/>
<path d="M13.5847 6.22486L11.599 5.90803V5.59956L7.73267 0H11.599L15.4654 5.59956V5.9165L13.5847 6.22486Z" fill="#9586FB"/>
<path d="M12.5657 6.95708H16.4315V10.6992H12.5657V6.95708Z" fill="#CA9B65"/>
<path d="M23.6717 19.6859L23.7691 19.5919C24.2987 19.0805 24.2987 18.2515 23.7691 17.7402L23.6717 17.6462C23.2839 17.2717 23.1678 16.7086 23.3777 16.2193L23.4304 16.0964C23.717 15.4284 23.3884 14.6624 22.6965 14.3857L22.5693 14.3348C22.0625 14.1322 21.7322 13.6548 21.7322 13.1252V12.9922C21.7322 12.2691 21.125 11.6829 20.3761 11.6829H20.2384C19.6899 11.6829 19.1954 11.3639 18.9855 10.8746L18.9328 10.7518C18.6462 10.0837 17.8529 9.76642 17.161 10.0432L17.0338 10.0941C16.527 10.2967 15.9437 10.1847 15.5559 9.81022L15.4585 9.71621C14.9289 9.20489 14.0703 9.20489 13.5407 9.71621L13.4434 9.81022C13.0556 10.1847 12.4723 10.2967 11.9655 10.0941L11.8383 10.0432C11.1464 9.76647 10.3531 10.0837 10.0665 10.7518L10.0138 10.8746C9.80387 11.3639 9.3094 11.6829 8.76089 11.6829H8.6232C7.87424 11.6829 7.26711 12.2691 7.26711 12.9922V13.1252C7.26711 13.6548 6.93673 14.1322 6.42996 14.3348L6.30275 14.3857C5.61083 14.6624 5.2822 15.4284 5.56885 16.0964L5.62153 16.2193C5.83144 16.7086 5.71538 17.2717 5.32757 17.6462L5.2302 17.7402C4.70061 18.2515 4.70061 19.0805 5.2302 19.5919L5.32757 19.6859C5.71544 20.0603 5.83144 20.6235 5.62153 21.1128L5.56885 21.2356C5.28225 21.9037 5.61083 22.6696 6.30275 22.9463L6.42996 22.9972C6.93673 23.1999 7.26711 23.6773 7.26711 24.2069V24.3398C7.26711 25.063 7.87424 25.6491 8.6232 25.6491H8.76089C9.3094 25.6491 9.80387 25.9681 10.0138 26.4574L10.0665 26.5803C10.3531 27.2483 11.1464 27.5656 11.8383 27.2888L11.9655 27.238C12.4723 27.0353 13.0556 27.1474 13.4434 27.5218L13.5407 27.6158C14.0703 28.1271 14.9289 28.1271 15.4585 27.6158L15.5559 27.5218C15.9437 27.1474 16.527 27.0353 17.0338 27.238L17.161 27.2888C17.8529 27.5656 18.6462 27.2483 18.9328 26.5803L18.9855 26.4574C19.1954 25.9681 19.6899 25.6491 20.2384 25.6491H20.3761C21.125 25.6491 21.7322 25.063 21.7322 24.3398V24.2069C21.7322 23.6773 22.0625 23.1999 22.5693 22.9972L22.6965 22.9463C23.3884 22.6696 23.7171 21.9037 23.4304 21.2356L23.3777 21.1128C23.1678 20.6235 23.2839 20.0604 23.6717 19.6859Z" fill="#E4C5A1"/>
<path d="M15.5002 18.3885L15.6174 18.3299C15.7053 18.2947 15.8049 18.2303 15.9221 18.1365C16.0393 18.0428 16.1506 17.9314 16.2678 17.7967C16.385 17.6678 16.4846 17.492 16.5667 17.281C16.6487 17.0701 16.6956 16.8357 16.6956 16.5896C16.6956 15.9275 16.4377 15.3709 15.9221 14.9256C15.4065 14.4803 14.7209 14.2517 13.8772 14.2517C13.5081 14.2517 13.1565 14.2986 12.8225 14.3924C12.4827 14.4861 12.2131 14.5857 12.0081 14.6912C11.803 14.7967 11.6155 14.9256 11.4397 15.0721C11.2639 15.2244 11.1526 15.324 11.1057 15.3826C11.0588 15.4412 11.0237 15.4822 11.0002 15.5115L12.0784 16.5896L12.26 16.3963C12.3772 16.2732 12.5647 16.1443 12.8342 16.0096C13.1038 15.8806 13.3909 15.8103 13.6956 15.8103C14.0471 15.8103 14.3284 15.9041 14.5334 16.0799C14.7327 16.2615 14.8381 16.49 14.8381 16.7713C14.8381 17.076 14.7327 17.3221 14.5276 17.5096C14.3225 17.6971 14.0471 17.7908 13.6956 17.7908H12.8577V19.2908H13.76C14.1877 19.2908 14.5217 19.3963 14.7678 19.5955C15.0139 19.8006 15.137 20.0584 15.137 20.3689C15.137 20.6853 15.0081 20.9431 14.762 21.1424C14.5159 21.3474 14.1584 21.4471 13.6956 21.4471C13.4612 21.4471 13.2385 21.4178 13.0217 21.3533C12.8049 21.2947 12.6292 21.2244 12.4885 21.1424C12.3479 21.0603 12.219 20.9724 12.0959 20.867C11.967 20.7615 11.8909 20.6912 11.8557 20.6502C11.8206 20.6092 11.7913 20.574 11.7795 20.5506L10.6956 21.6873L10.8186 21.8221C10.8948 21.9217 11.0237 22.033 11.1995 22.1619C11.3752 22.2908 11.5803 22.4138 11.8147 22.5428C12.0491 22.6717 12.3538 22.783 12.7229 22.8767C13.092 22.9705 13.4788 23.0115 13.8772 23.0115C14.8147 23.0115 15.5647 22.7654 16.1389 22.2674C16.7131 21.7752 17.0002 21.1834 17.0002 20.492C17.0002 20.1873 16.9417 19.9119 16.8362 19.6541C16.7249 19.3963 16.6018 19.1971 16.4729 19.0506C16.344 18.9099 16.1917 18.781 16.0217 18.6697C15.8459 18.5584 15.7288 18.4881 15.6584 18.4588C15.5881 18.4295 15.5354 18.406 15.5002 18.3885Z" fill="#CA9B65"/>
<path d="M18.4257 7.46624H10.5722C10.0717 7.46624 9.66602 7.07454 9.66602 6.5913V5.59973H19.332V6.5913C19.3319 7.07454 18.9262 7.46624 18.4257 7.46624Z" fill="#E4C5A1"/>
</g>
<defs>
<clipPath id="clip0">
<rect width="29" height="28" fill="white"/>
</clipPath>
</defs>
</svg>
