<svg width="28" height="28" viewBox="0 0 28 28" fill="none" xmlns="http://www.w3.org/2000/svg">
<rect width="28" height="28" rx="4" fill="#1E87FF"/>
<path d="M11.3047 12.9317C11.7081 13.6629 12.1729 14.3646 12.7764 15.0045C13.3819 15.6483 14.1348 16.2343 15.1094 16.7348C15.1817 16.7701 15.2501 16.7701 15.3116 16.7456C15.4044 16.7103 15.4991 16.6327 15.5919 16.5395C15.6641 16.4669 15.754 16.3511 15.8477 16.2244C16.2227 15.7288 16.6866 15.1135 17.3419 15.4216C17.3565 15.4285 17.3672 15.4364 17.3819 15.4422L19.5674 16.7054C19.5743 16.7093 19.5821 16.7161 19.588 16.7201C19.876 16.9193 19.9952 17.2265 19.9981 17.5749C19.9981 17.9292 19.8682 18.3277 19.6778 18.6643C19.4258 19.1089 19.0547 19.4033 18.627 19.5976C18.2198 19.7861 17.7667 19.8872 17.3311 19.9519C16.6475 20.053 16.0069 19.9883 15.3516 19.7861C14.711 19.5868 14.0655 19.2581 13.3604 18.8203L13.3087 18.787C12.9854 18.5838 12.6358 18.3669 12.293 18.1108C11.0391 17.1588 9.7608 15.7838 8.9278 14.2704C8.22955 13.0004 7.84869 11.6294 8.0567 10.3231C8.17194 9.60663 8.4776 8.95496 9.0108 8.52509C9.47565 8.14822 10.1016 7.94212 10.9122 8.01475C11.0049 8.02162 11.088 8.0756 11.1319 8.15607L12.5333 10.537C12.7383 10.804 12.7637 11.069 12.6514 11.334C12.5587 11.5509 12.3712 11.7511 12.1153 11.9375C12.0401 12.0023 11.9503 12.0681 11.8555 12.1368C11.5421 12.3654 11.1856 12.6295 11.3077 12.9396L11.3047 12.9317Z" stroke="white"/>
</svg>
