<svg width="19" height="19" viewBox="0 0 19 19" fill="none" xmlns="http://www.w3.org/2000/svg">
<path d="M12.6187 0.731304C12.6187 0.327773 13.0177 0 13.5109 0C14.0042 0 14.4031 0.327773 14.4031 0.731304V3.93482C14.4031 4.33835 14.0042 4.66612 13.5109 4.66612C13.0177 4.66612 12.6187 4.33835 12.6187 3.93482V0.731304ZM10.2221 16.3361C10.0984 16.3361 10.0984 14.7745 10.2221 14.7745H12.6636C12.7873 14.7745 12.7873 16.3361 12.6636 16.3361H10.2221ZM2.45077 10.6588C2.32707 10.6588 2.32707 9.09724 2.45077 9.09724H4.89225C5.01595 9.09724 5.01595 10.6588 4.89225 10.6588H2.45077ZM6.33643 10.6588C6.21273 10.6588 6.21273 9.09724 6.33643 9.09724H8.77791C8.90161 9.09724 8.90161 10.6588 8.77791 10.6588H6.33643ZM10.2221 10.6588C10.0984 10.6588 10.0984 9.09724 10.2221 9.09724H12.6636C12.7873 9.09724 12.7873 10.6588 12.6636 10.6588H10.2221ZM14.1093 9.09724H16.5446C16.6683 9.09724 16.6683 10.6588 16.5446 10.6588H14.1093C13.9856 10.6588 13.9856 9.09724 14.1093 9.09724ZM2.45077 13.4974C2.32707 13.4974 2.32707 11.9359 2.45077 11.9359H4.89225C5.01595 11.9359 5.01595 13.4974 4.89225 13.4974H2.45077ZM6.33952 13.4974C6.21582 13.4974 6.21582 11.9359 6.33952 11.9359H8.77791C8.90161 11.9359 8.90161 13.4974 8.77791 13.4974H6.33952ZM10.2252 13.4974C10.1015 13.4974 10.1015 11.9359 10.2252 11.9359H12.6636C12.7873 11.9359 12.7873 13.4974 12.6636 13.4974H10.2252ZM14.1124 13.4974C13.9887 13.4974 13.9887 11.9359 14.1124 11.9359H16.5446C16.6683 11.9359 16.6683 13.4974 16.5446 13.4974H14.1124ZM2.45386 16.3361C2.33016 16.3361 2.33016 14.7745 2.45386 14.7745H4.89225C5.01595 14.7745 5.01595 16.3361 4.89225 16.3361H2.45386ZM6.33952 16.3361C6.21582 16.3361 6.21582 14.7745 6.33952 14.7745H8.77791C8.90161 14.7745 8.90161 16.3361 8.77791 16.3361H6.33952ZM4.57837 0.731304C4.57837 0.327773 4.9773 0 5.47054 0C5.96379 0 6.36271 0.327773 6.36271 0.731304V3.93482C6.36271 4.33835 5.96379 4.66612 5.47054 4.66612C4.9773 4.66612 4.57837 4.33835 4.57837 3.93482V0.731304ZM0.989583 6.72089H18.0089V3.31947C18.0076 3.19962 17.9599 3.08492 17.8759 2.99943C17.8339 2.95728 17.7841 2.92383 17.7291 2.90102C17.6742 2.8782 17.6153 2.86646 17.5558 2.86647H15.9261C15.7949 2.86647 15.669 2.81434 15.5762 2.72156C15.4834 2.62877 15.4313 2.50293 15.4313 2.37171C15.4313 2.2405 15.4834 2.11466 15.5762 2.02187C15.669 1.92909 15.7949 1.87696 15.9261 1.87696H17.5574C17.9396 1.87819 18.3058 2.03056 18.5761 2.30082C18.8464 2.57107 18.9988 2.93727 19 3.31947V17.5575C18.9988 17.9397 18.8464 18.3059 18.5761 18.5761C18.3058 18.8464 17.9396 18.9988 17.5574 19H1.44263C1.06013 18.9988 0.693667 18.8462 0.423343 18.5756C0.153019 18.305 0.000815348 17.9384 0 17.5559L0 3.31947C0.00122315 2.93727 0.153607 2.57107 0.423887 2.30082C0.694167 2.03056 1.06039 1.87819 1.44263 1.87696H3.18522C3.2502 1.87696 3.31454 1.88976 3.37457 1.91462C3.4346 1.93949 3.48915 1.97593 3.53509 2.02187C3.58104 2.06781 3.61748 2.12236 3.64235 2.18238C3.66721 2.24241 3.68001 2.30674 3.68001 2.37171C3.68001 2.43669 3.66721 2.50102 3.64235 2.56105C3.61748 2.62107 3.58104 2.67561 3.53509 2.72156C3.48915 2.7675 3.4346 2.80394 3.37457 2.82881C3.31454 2.85367 3.2502 2.86647 3.18522 2.86647H1.44263C1.32276 2.86777 1.20806 2.91542 1.12256 2.99943C1.0804 3.04139 1.04696 3.09126 1.02414 3.14618C1.00132 3.20111 0.989573 3.26 0.989583 3.31947V6.72089ZM18.0104 7.71194H0.989583V17.5559C0.990888 17.6758 1.03854 17.7905 1.12256 17.876C1.16452 17.9181 1.2144 17.9516 1.26932 17.9744C1.32425 17.9972 1.38315 18.009 1.44263 18.009H17.5574C17.6772 18.0076 17.7919 17.96 17.8774 17.876C17.9196 17.834 17.953 17.7842 17.9759 17.7292C17.9987 17.6743 18.0104 17.6154 18.0104 17.5559V7.71194ZM7.79761 2.86647C7.66638 2.86647 7.54053 2.81434 7.44774 2.72156C7.35495 2.62877 7.30282 2.50293 7.30282 2.37171C7.30282 2.2405 7.35495 2.11466 7.44774 2.02187C7.54053 1.92909 7.66638 1.87696 7.79761 1.87696H11.1204C11.1854 1.87696 11.2498 1.88976 11.3098 1.91462C11.3698 1.93949 11.4244 1.97593 11.4703 2.02187C11.5163 2.06781 11.5527 2.12236 11.5776 2.18238C11.6024 2.24241 11.6152 2.30674 11.6152 2.37171C11.6152 2.43669 11.6024 2.50102 11.5776 2.56105C11.5527 2.62107 11.5163 2.67561 11.4703 2.72156C11.4244 2.7675 11.3698 2.80394 11.3098 2.82881C11.2498 2.85367 11.1854 2.86647 11.1204 2.86647H7.79761Z" fill="#1E87FF"/>
</svg>
